<svg xmlns="http://www.w3.org/2000/svg" xmlns:xlink="http://www.w3.org/1999/xlink" width="500" zoomAndPan="magnify" viewBox="0 0 375 374.999991" height="500" preserveAspectRatio="xMidYMid meet" version="1.0"><defs><g/><clipPath id="5fe35bfef3"><path d="M 81.304688 30 L 367.804688 30 L 367.804688 349 L 81.304688 349 Z M 81.304688 30 " clip-rule="nonzero"/></clipPath><clipPath id="73132110f1"><path d="M 75.683594 6.191406 L 201.570312 6.191406 L 201.570312 75.300781 L 75.683594 75.300781 Z M 75.683594 6.191406 " clip-rule="nonzero"/></clipPath><clipPath id="acb50443fd"><path d="M 79.933594 298.808594 L 205.816406 298.808594 L 205.816406 361.328125 L 79.933594 361.328125 Z M 79.933594 298.808594 " clip-rule="nonzero"/></clipPath><clipPath id="fe8ac3f421"><path d="M 3.914062 52.894531 L 273.164062 52.894531 L 273.164062 322.144531 L 3.914062 322.144531 Z M 3.914062 52.894531 " clip-rule="nonzero"/></clipPath><clipPath id="f120d40b65"><path d="M 53.964844 102.945312 L 223.464844 102.945312 L 223.464844 272.445312 L 53.964844 272.445312 Z M 53.964844 102.945312 " clip-rule="nonzero"/></clipPath><clipPath id="6bb2d5263b"><path d="M 98.042969 139.503906 L 117.765625 139.503906 L 117.765625 159.667969 L 98.042969 159.667969 Z M 98.042969 139.503906 " clip-rule="nonzero"/></clipPath><clipPath id="2813ddec9b"><path d="M 100.523438 145 L 120.023438 145 L 120.023438 161 L 100.523438 161 Z M 100.523438 145 " clip-rule="nonzero"/></clipPath></defs><g clip-path="url(#5fe35bfef3)"><path fill="#86d5b7" d="M 81.621094 310.179688 L 81.621094 69.140625 C 81.621094 68.296875 81.648438 67.457031 81.703125 66.617188 C 81.761719 65.777344 81.84375 64.9375 81.953125 64.101562 C 82.0625 63.265625 82.199219 62.4375 82.363281 61.609375 C 82.527344 60.785156 82.71875 59.964844 82.9375 59.152344 C 83.15625 58.335938 83.398438 57.53125 83.671875 56.734375 C 83.941406 55.9375 84.238281 55.148438 84.5625 54.371094 C 84.882812 53.589844 85.230469 52.824219 85.601562 52.070312 C 85.976562 51.3125 86.371094 50.570312 86.792969 49.839844 C 87.214844 49.113281 87.660156 48.394531 88.125 47.695312 C 88.59375 46.996094 89.085938 46.3125 89.597656 45.640625 C 90.109375 44.972656 90.644531 44.324219 91.199219 43.691406 C 91.753906 43.054688 92.328125 42.441406 92.925781 41.84375 C 93.519531 41.25 94.136719 40.675781 94.769531 40.117188 C 95.402344 39.5625 96.050781 39.027344 96.71875 38.515625 C 97.386719 38.003906 98.074219 37.511719 98.773438 37.042969 C 99.472656 36.574219 100.1875 36.128906 100.917969 35.707031 C 101.648438 35.289062 102.390625 34.890625 103.144531 34.515625 C 103.898438 34.144531 104.667969 33.796875 105.445312 33.472656 C 106.222656 33.152344 107.011719 32.855469 107.808594 32.582031 C 108.605469 32.3125 109.410156 32.066406 110.222656 31.847656 C 111.039062 31.628906 111.859375 31.4375 112.683594 31.273438 C 113.511719 31.109375 114.339844 30.96875 115.175781 30.859375 C 116.011719 30.75 116.847656 30.667969 117.6875 30.609375 C 118.53125 30.554688 119.371094 30.527344 120.214844 30.527344 C 121.054688 30.527344 121.898438 30.550781 122.738281 30.605469 C 123.578125 30.660156 124.417969 30.742188 125.253906 30.851562 C 126.085938 30.960938 126.917969 31.097656 127.746094 31.261719 C 128.570312 31.425781 129.390625 31.617188 130.203125 31.832031 C 131.019531 32.050781 131.824219 32.292969 132.621094 32.566406 C 133.421875 32.835938 134.207031 33.128906 134.988281 33.453125 C 135.765625 33.773438 136.53125 34.121094 137.289062 34.492188 C 138.042969 34.863281 138.789062 35.261719 139.519531 35.679688 L 348.3125 156.117188 C 349.042969 156.539062 349.757812 156.984375 350.457031 157.453125 C 351.160156 157.921875 351.84375 158.414062 352.511719 158.929688 C 353.179688 159.441406 353.832031 159.976562 354.464844 160.53125 C 355.097656 161.089844 355.714844 161.664062 356.308594 162.261719 C 356.90625 162.859375 357.480469 163.472656 358.035156 164.105469 C 358.59375 164.742188 359.125 165.390625 359.640625 166.0625 C 360.152344 166.730469 360.644531 167.414062 361.113281 168.117188 C 361.578125 168.816406 362.023438 169.53125 362.445312 170.261719 C 362.867188 170.992188 363.265625 171.738281 363.636719 172.492188 C 364.007812 173.25 364.355469 174.015625 364.679688 174.796875 C 365.003906 175.574219 365.300781 176.363281 365.570312 177.160156 C 365.839844 177.960938 366.085938 178.765625 366.304688 179.582031 C 366.519531 180.394531 366.710938 181.214844 366.875 182.042969 C 367.042969 182.871094 367.179688 183.699219 367.289062 184.535156 C 367.398438 185.371094 367.480469 186.210938 367.535156 187.050781 C 367.589844 187.894531 367.617188 188.734375 367.617188 189.578125 C 367.617188 190.421875 367.589844 191.261719 367.535156 192.105469 C 367.480469 192.945312 367.398438 193.785156 367.289062 194.621094 C 367.179688 195.457031 367.042969 196.289062 366.875 197.113281 C 366.710938 197.941406 366.519531 198.761719 366.304688 199.578125 C 366.085938 200.390625 365.839844 201.195312 365.570312 201.996094 C 365.300781 202.792969 365.003906 203.582031 364.679688 204.359375 C 364.355469 205.140625 364.007812 205.90625 363.636719 206.664062 C 363.265625 207.421875 362.867188 208.164062 362.445312 208.894531 C 362.023438 209.625 361.578125 210.339844 361.113281 211.039062 C 360.644531 211.742188 360.152344 212.425781 359.640625 213.09375 C 359.125 213.765625 358.59375 214.417969 358.035156 215.050781 C 357.480469 215.683594 356.90625 216.300781 356.308594 216.894531 C 355.714844 217.492188 355.097656 218.066406 354.464844 218.625 C 353.832031 219.179688 353.179688 219.714844 352.511719 220.230469 C 351.84375 220.742188 351.160156 221.234375 350.457031 221.703125 C 349.757812 222.171875 349.042969 222.617188 348.3125 223.039062 L 142.503906 341.773438 C 139.269531 344.121094 135.746094 345.898438 131.9375 347.109375 C 128.128906 348.316406 124.222656 348.894531 120.226562 348.839844 C 118.972656 348.839844 117.722656 348.777344 116.476562 348.65625 C 115.226562 348.535156 113.988281 348.351562 112.757812 348.109375 C 111.53125 347.867188 110.3125 347.566406 109.113281 347.203125 C 107.914062 346.84375 106.734375 346.425781 105.574219 345.949219 C 104.414062 345.472656 103.28125 344.941406 102.171875 344.351562 C 101.0625 343.765625 99.988281 343.128906 98.941406 342.4375 C 97.894531 341.746094 96.886719 341.003906 95.914062 340.214844 C 94.9375 339.421875 94.007812 338.585938 93.113281 337.707031 C 92.222656 336.824219 91.375 335.902344 90.574219 334.941406 C 89.769531 333.976562 89.019531 332.976562 88.3125 331.9375 C 87.609375 330.902344 86.957031 329.832031 86.355469 328.730469 C 85.757812 327.632812 85.210938 326.503906 84.71875 325.351562 C 84.230469 324.195312 83.796875 323.023438 83.421875 321.824219 C 83.046875 320.628906 82.726562 319.417969 82.46875 318.191406 C 82.210938 316.964844 82.015625 315.726562 81.878906 314.480469 C 81.742188 313.234375 81.664062 311.984375 81.648438 310.730469 Z M 81.621094 310.179688 " fill-opacity="1" fill-rule="nonzero"/></g><g clip-path="url(#73132110f1)"><path fill="#ffffff" d="M 75.683594 6.191406 L 201.484375 6.191406 L 201.484375 75.300781 L 75.683594 75.300781 Z M 75.683594 6.191406 " fill-opacity="1" fill-rule="nonzero"/></g><g clip-path="url(#acb50443fd)"><path fill="#ffffff" d="M 79.933594 298.808594 L 205.707031 298.808594 L 205.707031 361.328125 L 79.933594 361.328125 Z M 79.933594 298.808594 " fill-opacity="1" fill-rule="nonzero"/></g><g clip-path="url(#fe8ac3f421)"><path fill="#86d5b7" d="M 273.339844 187.605469 C 273.339844 189.808594 273.285156 192.011719 273.175781 194.214844 C 273.070312 196.417969 272.90625 198.617188 272.691406 200.808594 C 272.476562 203.003906 272.207031 205.191406 271.882812 207.371094 C 271.558594 209.554688 271.179688 211.722656 270.75 213.886719 C 270.320312 216.050781 269.839844 218.199219 269.300781 220.339844 C 268.765625 222.476562 268.179688 224.601562 267.539062 226.710938 C 266.898438 228.820312 266.207031 230.914062 265.464844 232.988281 C 264.722656 235.066406 263.929688 237.121094 263.085938 239.15625 C 262.242188 241.195312 261.347656 243.210938 260.40625 245.203125 C 259.464844 247.195312 258.472656 249.164062 257.433594 251.109375 C 256.394531 253.054688 255.308594 254.972656 254.175781 256.863281 C 253.039062 258.753906 251.863281 260.613281 250.636719 262.449219 C 249.410156 264.28125 248.144531 266.082031 246.828125 267.855469 C 245.515625 269.625 244.160156 271.363281 242.761719 273.066406 C 241.363281 274.769531 239.921875 276.441406 238.441406 278.074219 C 236.960938 279.707031 235.441406 281.304688 233.882812 282.863281 C 232.324219 284.421875 230.726562 285.941406 229.09375 287.421875 C 227.460938 288.902344 225.792969 290.339844 224.089844 291.738281 C 222.382812 293.136719 220.644531 294.496094 218.875 295.808594 C 217.105469 297.121094 215.300781 298.390625 213.46875 299.613281 C 211.636719 300.839844 209.773438 302.019531 207.882812 303.152344 C 205.992188 304.285156 204.074219 305.371094 202.128906 306.410156 C 200.1875 307.449219 198.21875 308.441406 196.222656 309.382812 C 194.230469 310.328125 192.214844 311.21875 190.179688 312.0625 C 188.140625 312.90625 186.085938 313.699219 184.011719 314.445312 C 181.933594 315.1875 179.84375 315.878906 177.730469 316.519531 C 175.621094 317.15625 173.5 317.746094 171.359375 318.28125 C 169.222656 318.816406 167.070312 319.300781 164.90625 319.730469 C 162.746094 320.160156 160.574219 320.535156 158.394531 320.859375 C 156.210938 321.183594 154.023438 321.453125 151.832031 321.667969 C 149.636719 321.886719 147.4375 322.046875 145.238281 322.15625 C 143.035156 322.265625 140.832031 322.320312 138.628906 322.320312 C 136.421875 322.320312 134.21875 322.265625 132.015625 322.15625 C 129.816406 322.046875 127.617188 321.886719 125.421875 321.667969 C 123.230469 321.453125 121.042969 321.183594 118.859375 320.859375 C 116.679688 320.535156 114.507812 320.160156 112.347656 319.730469 C 110.183594 319.300781 108.03125 318.816406 105.894531 318.28125 C 103.753906 317.746094 101.632812 317.15625 99.523438 316.519531 C 97.414062 315.878906 95.320312 315.1875 93.242188 314.445312 C 91.167969 313.699219 89.113281 312.90625 87.074219 312.0625 C 85.039062 311.21875 83.023438 310.328125 81.03125 309.382812 C 79.035156 308.441406 77.066406 307.449219 75.125 306.410156 C 73.179688 305.371094 71.261719 304.285156 69.371094 303.152344 C 67.480469 302.019531 65.617188 300.839844 63.785156 299.613281 C 61.953125 298.390625 60.148438 297.121094 58.378906 295.808594 C 56.609375 294.496094 54.871094 293.136719 53.167969 291.738281 C 51.460938 290.339844 49.792969 288.902344 48.160156 287.421875 C 46.527344 285.941406 44.929688 284.421875 43.371094 282.863281 C 41.8125 281.304688 40.292969 279.707031 38.8125 278.074219 C 37.332031 276.441406 35.890625 274.769531 34.492188 273.066406 C 33.09375 271.363281 31.738281 269.625 30.425781 267.855469 C 29.109375 266.082031 27.84375 264.28125 26.617188 262.449219 C 25.390625 260.613281 24.214844 258.753906 23.078125 256.863281 C 21.945312 254.972656 20.859375 253.054688 19.820312 251.109375 C 18.78125 249.164062 17.789062 247.195312 16.847656 245.203125 C 15.90625 243.210938 15.011719 241.195312 14.167969 239.15625 C 13.324219 237.121094 12.53125 235.066406 11.789062 232.988281 C 11.046875 230.914062 10.355469 228.820312 9.714844 226.710938 C 9.074219 224.601562 8.488281 222.476562 7.953125 220.339844 C 7.414062 218.199219 6.933594 216.050781 6.503906 213.886719 C 6.074219 211.722656 5.695312 209.554688 5.371094 207.371094 C 5.046875 205.191406 4.777344 203.003906 4.5625 200.808594 C 4.347656 198.617188 4.183594 196.417969 4.078125 194.214844 C 3.96875 192.011719 3.914062 189.808594 3.914062 187.605469 C 3.914062 185.402344 3.96875 183.199219 4.078125 180.996094 C 4.183594 178.792969 4.347656 176.59375 4.5625 174.402344 C 4.777344 172.207031 5.046875 170.019531 5.371094 167.839844 C 5.695312 165.65625 6.074219 163.488281 6.503906 161.324219 C 6.933594 159.160156 7.414062 157.011719 7.953125 154.871094 C 8.488281 152.734375 9.074219 150.609375 9.714844 148.5 C 10.355469 146.390625 11.046875 144.296875 11.789062 142.222656 C 12.53125 140.144531 13.324219 138.089844 14.167969 136.054688 C 15.011719 134.015625 15.90625 132 16.847656 130.007812 C 17.789062 128.015625 18.78125 126.046875 19.820312 124.101562 C 20.859375 122.15625 21.945312 120.242188 23.078125 118.347656 C 24.214844 116.457031 25.390625 114.597656 26.617188 112.761719 C 27.84375 110.929688 29.109375 109.128906 30.425781 107.355469 C 31.738281 105.585938 33.09375 103.847656 34.492188 102.144531 C 35.890625 100.441406 37.332031 98.769531 38.8125 97.136719 C 40.292969 95.503906 41.8125 93.90625 43.371094 92.347656 C 44.929688 90.789062 46.527344 89.269531 48.160156 87.789062 C 49.792969 86.308594 51.460938 84.871094 53.167969 83.472656 C 54.871094 82.074219 56.609375 80.714844 58.378906 79.402344 C 60.148438 78.089844 61.953125 76.820312 63.785156 75.597656 C 65.617188 74.371094 67.480469 73.191406 69.371094 72.058594 C 71.261719 70.925781 73.179688 69.839844 75.125 68.800781 C 77.066406 67.761719 79.035156 66.769531 81.03125 65.828125 C 83.023438 64.882812 85.039062 63.992188 87.074219 63.148438 C 89.113281 62.304688 91.167969 61.511719 93.242188 60.765625 C 95.320312 60.023438 97.414062 59.332031 99.523438 58.691406 C 101.632812 58.054688 103.753906 57.464844 105.894531 56.929688 C 108.03125 56.394531 110.183594 55.910156 112.347656 55.480469 C 114.507812 55.050781 116.679688 54.675781 118.859375 54.351562 C 121.042969 54.027344 123.230469 53.757812 125.421875 53.542969 C 127.617188 53.324219 129.816406 53.164062 132.015625 53.054688 C 134.21875 52.945312 136.421875 52.894531 138.628906 52.894531 C 140.832031 52.894531 143.035156 52.945312 145.238281 53.054688 C 147.4375 53.164062 149.636719 53.324219 151.832031 53.542969 C 154.023438 53.757812 156.210938 54.027344 158.394531 54.351562 C 160.574219 54.675781 162.746094 55.050781 164.90625 55.480469 C 167.070312 55.910156 169.222656 56.394531 171.359375 56.929688 C 173.5 57.464844 175.621094 58.054688 177.730469 58.691406 C 179.84375 59.332031 181.933594 60.023438 184.011719 60.765625 C 186.085938 61.511719 188.140625 62.304688 190.179688 63.148438 C 192.214844 63.992188 194.230469 64.882812 196.222656 65.828125 C 198.21875 66.769531 200.1875 67.761719 202.128906 68.800781 C 204.074219 69.839844 205.992188 70.925781 207.882812 72.058594 C 209.773438 73.191406 211.636719 74.371094 213.46875 75.597656 C 215.300781 76.820312 217.105469 78.089844 218.875 79.402344 C 220.644531 80.714844 222.382812 82.074219 224.089844 83.472656 C 225.792969 84.871094 227.460938 86.308594 229.09375 87.789062 C 230.726562 89.269531 232.324219 90.789062 233.882812 92.347656 C 235.441406 93.90625 236.960938 95.503906 238.441406 97.136719 C 239.921875 98.769531 241.363281 100.441406 242.761719 102.144531 C 244.160156 103.847656 245.515625 105.585938 246.828125 107.355469 C 248.144531 109.128906 249.410156 110.929688 250.636719 112.761719 C 251.863281 114.597656 253.039062 116.457031 254.175781 118.347656 C 255.308594 120.242188 256.394531 122.15625 257.433594 124.101562 C 258.472656 126.046875 259.464844 128.015625 260.40625 130.007812 C 261.347656 132 262.242188 134.015625 263.085938 136.054688 C 263.929688 138.089844 264.722656 140.144531 265.464844 142.222656 C 266.207031 144.296875 266.898438 146.390625 267.539062 148.5 C 268.179688 150.609375 268.765625 152.734375 269.300781 154.871094 C 269.839844 157.011719 270.320312 159.160156 270.75 161.324219 C 271.179688 163.488281 271.558594 165.65625 271.882812 167.839844 C 272.207031 170.019531 272.476562 172.207031 272.691406 174.402344 C 272.90625 176.59375 273.070312 178.792969 273.175781 180.996094 C 273.285156 183.199219 273.339844 185.402344 273.339844 187.605469 Z M 273.339844 187.605469 " fill-opacity="1" fill-rule="nonzero"/></g><g clip-path="url(#f120d40b65)"><path fill="#ffffff" d="M 223.464844 187.695312 C 223.464844 189.082031 223.433594 190.46875 223.363281 191.851562 C 223.296875 193.238281 223.195312 194.621094 223.058594 196 C 222.921875 197.382812 222.753906 198.757812 222.550781 200.128906 C 222.34375 201.503906 222.109375 202.867188 221.839844 204.230469 C 221.566406 205.589844 221.261719 206.941406 220.925781 208.289062 C 220.589844 209.632812 220.21875 210.96875 219.816406 212.296875 C 219.414062 213.625 218.980469 214.941406 218.511719 216.246094 C 218.046875 217.550781 217.546875 218.847656 217.015625 220.128906 C 216.484375 221.410156 215.921875 222.675781 215.328125 223.929688 C 214.738281 225.183594 214.113281 226.421875 213.460938 227.644531 C 212.804688 228.867188 212.121094 230.074219 211.410156 231.265625 C 210.695312 232.453125 209.953125 233.625 209.183594 234.78125 C 208.414062 235.933594 207.613281 237.066406 206.789062 238.179688 C 205.960938 239.292969 205.109375 240.386719 204.230469 241.460938 C 203.347656 242.53125 202.445312 243.582031 201.511719 244.609375 C 200.582031 245.636719 199.625 246.640625 198.644531 247.621094 C 197.664062 248.601562 196.660156 249.558594 195.632812 250.492188 C 194.601562 251.421875 193.554688 252.328125 192.480469 253.207031 C 191.410156 254.085938 190.316406 254.941406 189.203125 255.765625 C 188.089844 256.59375 186.953125 257.390625 185.800781 258.160156 C 184.648438 258.933594 183.476562 259.675781 182.285156 260.386719 C 181.097656 261.101562 179.890625 261.785156 178.667969 262.4375 C 177.445312 263.089844 176.207031 263.714844 174.953125 264.308594 C 173.699219 264.902344 172.429688 265.464844 171.148438 265.992188 C 169.867188 266.523438 168.574219 267.023438 167.269531 267.492188 C 165.960938 267.957031 164.644531 268.394531 163.316406 268.796875 C 161.992188 269.199219 160.65625 269.566406 159.308594 269.90625 C 157.964844 270.242188 156.609375 270.546875 155.25 270.816406 C 153.890625 271.085938 152.523438 271.324219 151.152344 271.527344 C 149.78125 271.730469 148.402344 271.902344 147.023438 272.035156 C 145.644531 272.171875 144.261719 272.273438 142.875 272.34375 C 141.488281 272.410156 140.105469 272.445312 138.714844 272.445312 C 137.328125 272.445312 135.945312 272.410156 134.558594 272.34375 C 133.171875 272.273438 131.789062 272.171875 130.410156 272.035156 C 129.027344 271.902344 127.652344 271.730469 126.28125 271.527344 C 124.910156 271.324219 123.542969 271.085938 122.183594 270.816406 C 120.820312 270.546875 119.46875 270.242188 118.125 269.90625 C 116.777344 269.566406 115.441406 269.199219 114.113281 268.796875 C 112.789062 268.394531 111.472656 267.957031 110.164062 267.492188 C 108.859375 267.023438 107.566406 266.523438 106.285156 265.992188 C 105.003906 265.464844 103.734375 264.902344 102.480469 264.308594 C 101.226562 263.714844 99.988281 263.089844 98.765625 262.4375 C 97.542969 261.785156 96.335938 261.101562 95.144531 260.386719 C 93.957031 259.675781 92.785156 258.933594 91.632812 258.160156 C 90.480469 257.390625 89.34375 256.59375 88.230469 255.765625 C 87.117188 254.941406 86.023438 254.085938 84.953125 253.207031 C 83.878906 252.328125 82.828125 251.421875 81.800781 250.492188 C 80.773438 249.558594 79.769531 248.601562 78.789062 247.621094 C 77.808594 246.640625 76.851562 245.636719 75.921875 244.609375 C 74.988281 243.582031 74.082031 242.53125 73.203125 241.460938 C 72.324219 240.386719 71.472656 239.292969 70.644531 238.179688 C 69.820312 237.066406 69.019531 235.933594 68.25 234.78125 C 67.480469 233.625 66.738281 232.453125 66.023438 231.265625 C 65.3125 230.074219 64.628906 228.867188 63.972656 227.644531 C 63.320312 226.421875 62.695312 225.183594 62.101562 223.929688 C 61.511719 222.675781 60.949219 221.410156 60.417969 220.128906 C 59.886719 218.847656 59.386719 217.550781 58.921875 216.246094 C 58.453125 214.941406 58.019531 213.625 57.617188 212.296875 C 57.214844 210.96875 56.84375 209.632812 56.507812 208.289062 C 56.167969 206.941406 55.867188 205.589844 55.59375 204.230469 C 55.324219 202.867188 55.085938 201.503906 54.882812 200.128906 C 54.679688 198.757812 54.511719 197.382812 54.375 196 C 54.238281 194.621094 54.136719 193.238281 54.070312 191.851562 C 54 190.46875 53.964844 189.082031 53.964844 187.695312 C 53.964844 186.308594 54 184.921875 54.070312 183.535156 C 54.136719 182.152344 54.238281 180.769531 54.375 179.386719 C 54.511719 178.007812 54.679688 176.632812 54.882812 175.257812 C 55.085938 173.886719 55.324219 172.519531 55.59375 171.160156 C 55.867188 169.800781 56.167969 168.449219 56.507812 167.101562 C 56.84375 165.757812 57.214844 164.421875 57.617188 163.09375 C 58.019531 161.765625 58.453125 160.449219 58.921875 159.144531 C 59.386719 157.835938 59.886719 156.542969 60.417969 155.261719 C 60.949219 153.980469 61.511719 152.714844 62.101562 151.460938 C 62.695312 150.207031 63.320312 148.96875 63.972656 147.742188 C 64.628906 146.519531 65.3125 145.316406 66.023438 144.125 C 66.738281 142.933594 67.480469 141.761719 68.25 140.609375 C 69.019531 139.457031 69.820312 138.324219 70.644531 137.210938 C 71.472656 136.09375 72.324219 135.003906 73.203125 133.929688 C 74.082031 132.859375 74.988281 131.808594 75.921875 130.78125 C 76.851562 129.753906 77.808594 128.75 78.789062 127.769531 C 79.769531 126.785156 80.773438 125.832031 81.800781 124.898438 C 82.828125 123.96875 83.878906 123.0625 84.953125 122.183594 C 86.023438 121.300781 87.117188 120.449219 88.230469 119.625 C 89.34375 118.796875 90.480469 118 91.632812 117.226562 C 92.785156 116.457031 93.957031 115.714844 95.144531 115.003906 C 96.335938 114.289062 97.542969 113.605469 98.765625 112.953125 C 99.988281 112.296875 101.226562 111.675781 102.480469 111.082031 C 103.734375 110.488281 105.003906 109.925781 106.285156 109.394531 C 107.566406 108.867188 108.859375 108.367188 110.164062 107.898438 C 111.472656 107.433594 112.789062 106.996094 114.113281 106.59375 C 115.441406 106.191406 116.777344 105.820312 118.125 105.484375 C 119.46875 105.148438 120.820312 104.84375 122.183594 104.574219 C 123.542969 104.304688 124.910156 104.066406 126.28125 103.863281 C 127.652344 103.660156 129.027344 103.488281 130.410156 103.351562 C 131.789062 103.21875 133.171875 103.113281 134.558594 103.046875 C 135.945312 102.980469 137.328125 102.945312 138.714844 102.945312 C 140.105469 102.945312 141.488281 102.980469 142.875 103.046875 C 144.261719 103.113281 145.644531 103.21875 147.023438 103.351562 C 148.402344 103.488281 149.78125 103.660156 151.152344 103.863281 C 152.523438 104.066406 153.890625 104.304688 155.25 104.574219 C 156.609375 104.84375 157.964844 105.148438 159.308594 105.484375 C 160.65625 105.820312 161.992188 106.191406 163.316406 106.59375 C 164.644531 106.996094 165.960938 107.433594 167.269531 107.898438 C 168.574219 108.367188 169.867188 108.867188 171.148438 109.394531 C 172.429688 109.925781 173.699219 110.488281 174.953125 111.082031 C 176.207031 111.675781 177.445312 112.296875 178.667969 112.953125 C 179.890625 113.605469 181.097656 114.289062 182.285156 115.003906 C 183.476562 115.714844 184.648438 116.457031 185.800781 117.226562 C 186.953125 118 188.089844 118.796875 189.203125 119.625 C 190.316406 120.449219 191.410156 121.300781 192.480469 122.183594 C 193.554688 123.0625 194.601562 123.96875 195.632812 124.898438 C 196.660156 125.832031 197.664062 126.785156 198.644531 127.769531 C 199.625 128.75 200.582031 129.753906 201.511719 130.78125 C 202.445312 131.808594 203.347656 132.859375 204.230469 133.929688 C 205.109375 135.003906 205.960938 136.09375 206.789062 137.210938 C 207.613281 138.324219 208.414062 139.457031 209.183594 140.609375 C 209.953125 141.761719 210.695312 142.933594 211.410156 144.125 C 212.121094 145.3125 212.804688 146.519531 213.460938 147.742188 C 214.113281 148.96875 214.738281 150.207031 215.328125 151.460938 C 215.921875 152.714844 216.484375 153.980469 217.015625 155.261719 C 217.546875 156.542969 218.046875 157.835938 218.511719 159.144531 C 218.980469 160.449219 219.414062 161.765625 219.816406 163.09375 C 220.21875 164.421875 220.589844 165.757812 220.925781 167.101562 C 221.265625 168.449219 221.566406 169.800781 221.839844 171.160156 C 222.109375 172.519531 222.347656 173.886719 222.550781 175.257812 C 222.753906 176.632812 222.921875 178.007812 223.058594 179.386719 C 223.195312 180.769531 223.296875 182.152344 223.363281 183.535156 C 223.433594 184.921875 223.464844 186.308594 223.464844 187.695312 Z M 223.464844 187.695312 " fill-opacity="1" fill-rule="nonzero"/></g><g fill="#114527" fill-opacity="1"><g transform="translate(26.221936, 218.951735)"><g><path d="M 7.375 24.21875 L 7.375 -52.03125 L 17.59375 -52.03125 L 18.21875 -43.5 C 20.25 -46.65625 22.929688 -49.019531 26.265625 -50.59375 C 29.609375 -52.175781 33.035156 -52.96875 36.546875 -52.96875 C 41.742188 -52.96875 46.304688 -51.789062 50.234375 -49.4375 C 54.160156 -47.09375 57.226562 -43.882812 59.4375 -39.8125 C 61.65625 -35.738281 62.765625 -31.101562 62.765625 -25.90625 C 62.765625 -20.644531 61.691406 -15.957031 59.546875 -11.84375 C 57.410156 -7.738281 54.394531 -4.507812 50.5 -2.15625 C 46.601562 0.195312 41.953125 1.375 36.546875 1.375 C 34.441406 1.375 32.210938 1.09375 29.859375 0.53125 C 27.503906 -0.03125 25.304688 -0.941406 23.265625 -2.203125 C 21.234375 -3.472656 19.550781 -5.195312 18.21875 -7.375 L 18.21875 24.21875 Z M 35.484375 -9.15625 C 38.710938 -9.15625 41.554688 -9.875 44.015625 -11.3125 C 46.472656 -12.757812 48.40625 -14.742188 49.8125 -17.265625 C 51.21875 -19.796875 51.921875 -22.675781 51.921875 -25.90625 C 51.921875 -30.820312 50.425781 -34.804688 47.4375 -37.859375 C 44.457031 -40.910156 40.472656 -42.4375 35.484375 -42.4375 C 32.191406 -42.4375 29.316406 -41.695312 26.859375 -40.21875 C 24.398438 -38.75 22.503906 -36.769531 21.171875 -34.28125 C 19.835938 -31.789062 19.171875 -29 19.171875 -25.90625 C 19.171875 -22.8125 19.867188 -20 21.265625 -17.46875 C 22.671875 -14.945312 24.601562 -12.929688 27.0625 -11.421875 C 29.519531 -9.910156 32.328125 -9.15625 35.484375 -9.15625 Z M 35.484375 -9.15625 "/></g></g></g><g fill="#114527" fill-opacity="1"><g transform="translate(93.202336, 218.951735)"><g><path d="M 12.84375 -60.453125 C 11.164062 -60.453125 9.625 -61.007812 8.21875 -62.125 C 6.8125 -63.25 6.109375 -64.9375 6.109375 -67.1875 C 6.109375 -69.4375 6.8125 -71.101562 8.21875 -72.1875 C 9.625 -73.28125 11.164062 -73.828125 12.84375 -73.828125 C 14.53125 -73.828125 16.078125 -73.28125 17.484375 -72.1875 C 18.890625 -71.101562 19.59375 -69.4375 19.59375 -67.1875 C 19.59375 -64.9375 18.890625 -63.25 17.484375 -62.125 C 16.078125 -61.007812 14.53125 -60.453125 12.84375 -60.453125 Z M 7.375 0 L 7.375 -52.03125 L 18.21875 -52.03125 L 18.21875 0 Z M 7.375 0 "/></g></g></g><g fill="#114527" fill-opacity="1"><g transform="translate(118.793899, 218.951735)"><g><path d="M 32.21875 1.46875 C 26.539062 1.46875 21.609375 0.328125 17.421875 -1.953125 C 13.242188 -4.234375 10 -7.425781 7.6875 -11.53125 C 5.375 -15.632812 4.21875 -20.460938 4.21875 -26.015625 C 4.21875 -31.273438 5.359375 -35.941406 7.640625 -40.015625 C 9.921875 -44.085938 13.113281 -47.28125 17.21875 -49.59375 C 21.320312 -51.914062 26.078125 -53.078125 31.484375 -53.078125 C 36.679688 -53.078125 41.242188 -52.09375 45.171875 -50.125 C 49.109375 -48.164062 52.195312 -45.203125 54.4375 -41.234375 C 56.6875 -37.265625 57.8125 -32.296875 57.8125 -26.328125 C 57.8125 -25.628906 57.796875 -24.875 57.765625 -24.0625 C 57.734375 -23.257812 57.679688 -22.46875 57.609375 -21.6875 L 15.484375 -21.6875 C 15.972656 -17.6875 17.726562 -14.507812 20.75 -12.15625 C 23.769531 -9.8125 27.664062 -8.640625 32.4375 -8.640625 C 35.101562 -8.640625 37.875 -9.113281 40.75 -10.0625 C 43.632812 -11.007812 45.882812 -12.394531 47.5 -14.21875 L 54.546875 -7.375 C 51.878906 -4.351562 48.492188 -2.125 44.390625 -0.6875 C 40.285156 0.75 36.226562 1.46875 32.21875 1.46875 Z M 15.6875 -30.859375 L 47.1875 -30.859375 C 46.832031 -34.992188 45.285156 -38.113281 42.546875 -40.21875 C 39.804688 -42.332031 36.222656 -43.390625 31.796875 -43.390625 C 27.796875 -43.390625 24.320312 -42.332031 21.375 -40.21875 C 18.425781 -38.113281 16.53125 -34.992188 15.6875 -30.859375 Z M 15.6875 -30.859375 "/></g></g></g><g fill="#114527" fill-opacity="1"><g transform="translate(180.087292, 218.951735)"><g><path d="M 7.375 0 L 7.375 -52.03125 L 17.484375 -52.03125 L 18.21875 -45.078125 C 20.113281 -48.378906 22.429688 -50.535156 25.171875 -51.546875 C 27.910156 -52.566406 30.679688 -53.078125 33.484375 -53.078125 C 36.015625 -53.078125 38.421875 -52.671875 40.703125 -51.859375 C 42.984375 -51.054688 44.863281 -49.988281 46.34375 -48.65625 L 41.390625 -39.171875 C 40.054688 -40.222656 38.703125 -41.007812 37.328125 -41.53125 C 35.960938 -42.0625 34.257812 -42.328125 32.21875 -42.328125 C 28.5 -42.328125 25.234375 -41.148438 22.421875 -38.796875 C 19.617188 -36.453125 18.21875 -32.894531 18.21875 -28.125 L 18.21875 0 Z M 7.375 0 "/></g></g></g><g fill="#114527" fill-opacity="1"><g transform="translate(226.425933, 218.951735)"><g><path d="M 31.59375 1.46875 C 26.601562 1.46875 22.035156 0.453125 17.890625 -1.578125 C 13.753906 -3.617188 10.441406 -6.671875 7.953125 -10.734375 C 5.460938 -14.804688 4.21875 -19.828125 4.21875 -25.796875 C 4.21875 -31.835938 5.441406 -36.875 7.890625 -40.90625 C 10.347656 -44.945312 13.664062 -47.984375 17.84375 -50.015625 C 22.019531 -52.054688 26.601562 -53.078125 31.59375 -53.078125 C 35.175781 -53.078125 38.492188 -52.476562 41.546875 -51.28125 C 44.597656 -50.09375 47.53125 -48.128906 50.34375 -45.390625 L 43.5 -38.328125 C 41.8125 -39.804688 39.929688 -40.910156 37.859375 -41.640625 C 35.785156 -42.378906 33.734375 -42.75 31.703125 -42.75 C 28.609375 -42.75 25.796875 -42.046875 23.265625 -40.640625 C 20.742188 -39.242188 18.742188 -37.28125 17.265625 -34.75 C 15.796875 -32.226562 15.0625 -29.242188 15.0625 -25.796875 C 15.0625 -22.148438 15.816406 -19.078125 17.328125 -16.578125 C 18.835938 -14.085938 20.851562 -12.210938 23.375 -10.953125 C 25.90625 -9.691406 28.644531 -9.0625 31.59375 -9.0625 C 33.84375 -9.0625 36.035156 -9.425781 38.171875 -10.15625 C 40.316406 -10.894531 42.234375 -12.144531 43.921875 -13.90625 L 51.28125 -6.640625 C 48.332031 -3.753906 45.257812 -1.679688 42.0625 -0.421875 C 38.875 0.835938 35.382812 1.46875 31.59375 1.46875 Z M 31.59375 1.46875 "/></g></g></g><g fill="#114527" fill-opacity="1"><g transform="translate(280.03132, 218.951735)"><g><path d="M 32.21875 1.46875 C 26.539062 1.46875 21.609375 0.328125 17.421875 -1.953125 C 13.242188 -4.234375 10 -7.425781 7.6875 -11.53125 C 5.375 -15.632812 4.21875 -20.460938 4.21875 -26.015625 C 4.21875 -31.273438 5.359375 -35.941406 7.640625 -40.015625 C 9.921875 -44.085938 13.113281 -47.28125 17.21875 -49.59375 C 21.320312 -51.914062 26.078125 -53.078125 31.484375 -53.078125 C 36.679688 -53.078125 41.242188 -52.09375 45.171875 -50.125 C 49.109375 -48.164062 52.195312 -45.203125 54.4375 -41.234375 C 56.6875 -37.265625 57.8125 -32.296875 57.8125 -26.328125 C 57.8125 -25.628906 57.796875 -24.875 57.765625 -24.0625 C 57.734375 -23.257812 57.679688 -22.46875 57.609375 -21.6875 L 15.484375 -21.6875 C 15.972656 -17.6875 17.726562 -14.507812 20.75 -12.15625 C 23.769531 -9.8125 27.664062 -8.640625 32.4375 -8.640625 C 35.101562 -8.640625 37.875 -9.113281 40.75 -10.0625 C 43.632812 -11.007812 45.882812 -12.394531 47.5 -14.21875 L 54.546875 -7.375 C 51.878906 -4.351562 48.492188 -2.125 44.390625 -0.6875 C 40.285156 0.75 36.226562 1.46875 32.21875 1.46875 Z M 15.6875 -30.859375 L 47.1875 -30.859375 C 46.832031 -34.992188 45.285156 -38.113281 42.546875 -40.21875 C 39.804688 -42.332031 36.222656 -43.390625 31.796875 -43.390625 C 27.796875 -43.390625 24.320312 -42.332031 21.375 -40.21875 C 18.425781 -38.113281 16.53125 -34.992188 15.6875 -30.859375 Z M 15.6875 -30.859375 "/></g></g></g><g clip-path="url(#6bb2d5263b)"><path fill="#ffffff" d="M 98.042969 139.503906 L 117.765625 139.503906 L 117.765625 159.6875 L 98.042969 159.6875 Z M 98.042969 139.503906 " fill-opacity="1" fill-rule="nonzero"/></g><g clip-path="url(#2813ddec9b)"><path fill="#2c845f" d="M 113.78125 157.894531 C 108.328125 161.871094 100.550781 160.492188 100.550781 160.492188 C 100.550781 160.492188 101.617188 152.664062 107.074219 148.679688 C 112.527344 144.691406 120.304688 146.082031 120.304688 146.082031 C 120.304688 146.082031 119.238281 153.921875 113.78125 157.894531 Z M 113.78125 157.894531 " fill-opacity="1" fill-rule="nonzero"/></g></svg>